<?xml version="1.0" standalone="no"?><svg xmlns="http://www.w3.org/2000/svg" viewBox="0 0 1440 320"><path fill="#0099ff" fill-opacity="1" d="M0,96L12,106.7C24,117,48,139,72,128C96,117,120,75,144,58.7C168,43,192,53,216,74.7C240,96,264,128,288,149.3C312,171,336,181,360,181.3C384,181,408,171,432,154.7C456,139,480,117,504,112C528,107,552,117,576,128C600,139,624,149,648,170.7C672,192,696,224,720,245.3C744,267,768,277,792,256C816,235,840,181,864,133.3C888,85,912,43,936,69.3C960,96,984,192,1008,213.3C1032,235,1056,181,1080,170.7C1104,160,1128,192,1152,197.3C1176,203,1200,181,1224,154.7C1248,128,1272,96,1296,90.7C1320,85,1344,107,1368,133.3C1392,160,1416,192,1428,208L1440,224L1440,0L1428,0C1416,0,1392,0,1368,0C1344,0,1320,0,1296,0C1272,0,1248,0,1224,0C1200,0,1176,0,1152,0C1128,0,1104,0,1080,0C1056,0,1032,0,1008,0C984,0,960,0,936,0C912,0,888,0,864,0C840,0,816,0,792,0C768,0,744,0,720,0C696,0,672,0,648,0C624,0,600,0,576,0C552,0,528,0,504,0C480,0,456,0,432,0C408,0,384,0,360,0C336,0,312,0,288,0C264,0,240,0,216,0C192,0,168,0,144,0C120,0,96,0,72,0C48,0,24,0,12,0L0,0Z"></path></svg>